<svg height="56" viewBox="0 0 55 56" width="55" xmlns="http://www.w3.org/2000/svg"><g id="Page-1" fill="none" fill-rule="evenodd"><g id="012---Map-Pin" fill="rgb(0,0,0)" fill-rule="nonzero"><path id="Shape" d="m17.32 32.36c1.782842 2.7269173 3.8769226 5.2371293 6.24 7.48 1.0841797 1.0477383 2.2331091 2.0263322 3.44 2.93 3.7785763-2.8915268 7.041202-6.4009625 9.65-10.38.1317708-.178832.2520143-.3658775.36-.56 3.2153966-4.9730332 4.94957-10.7582358 5-16.68 0-8.28427125-6.7157288-15-15-15s-15 6.71572875-15 15c.0530623 5.9043116 1.7836729 11.6718575 4.99 16.63.0946519.1997228.2015211.3934232.32.58zm9.68-29.36c6.627417 0 12 5.372583 12 12s-5.372583 12-12 12-12-5.372583-12-12 5.372583-12 12-12z"/><path id="Shape" d="m48.11 37.87-.63-1.75-1.72.74z"/><path id="Shape" d="m32.86 40.26 4.14-1.76c.2550505-.1113131.5449495-.1113131.8 0l12.51 5.4-1.31-3.45-6.19-2.67c-.3687533-.1570883-.6080816-.5191812-.6080816-.92s.2393283-.7629117.6080816-.92l4-1.71-.89-2.53-9.06 3.91c-1.2254861 1.6396018-2.5619538 3.1932455-4 4.65z"/><path id="Shape" d="m15.66 33.47c-.1580541-.2190921-.3049089-.4460495-.44-.68-.57-.92-1.08-1.85-1.56-2.79h-4.95l-.33.93 7.85 3.39z"/><path id="Shape" d="m38.92 32.54 5.89-2.54h-4.47c-.44.85-.91 1.7-1.42 2.54z"/><path id="Shape" d="m21.55 45.79c-.001389-.3988865.2344113-.7604469.6-.92l2.77-1.19c-.61-.49-1.38-1.14-2.25-1.94l-8.58 3.7c-.2550505.1113131-.5449495.1113131-.8 0l-8.74-3.78-.91 2.53 4.53 2c.36875333.1570883.60808164.5191812.60808164.92s-.23932831.7629117-.60808164.92l-7 3-1.17 3.43 16.29-7c.2550505-.1113131.5449495-.1113131.8 0l19.83 8.54h6.76l-21.53-9.29c-.3655887-.1595531-.601389-.5211135-.6-.92z"/><path id="Shape" d="m51.19 46.48-13.84-6-9.51 4.12-2.72 1.17 23.61 10.23h5.85z"/><path id="Shape" d="m21.11 40.23c-.77-.79-1.59-1.68-2.42-2.67l-11-4.75-2.49 7 8.47 3.66z"/><path id="Shape" d="m1.46 56h30.42l-15.22-6.57z"/><path id="Shape" d="m2.97 46.08-.84 2.33 3.12-1.35z"/></g></g></svg>