<?xml version="1.0" encoding="iso-8859-1"?>
<!-- Generator: Adobe Illustrator 19.0.0, SVG Export Plug-In . SVG Version: 6.00 Build 0)  -->
<svg version="1.1" id="Layer_1" xmlns="http://www.w3.org/2000/svg" xmlns:xlink="http://www.w3.org/1999/xlink" x="0px" y="0px"
	 viewBox="0 0 512 512" style="enable-background:new 0 0 512 512;" xml:space="preserve">
<g>
	<g>
		<path d="M271,30.76V15c0-8.291-6.709-15-15-15c-8.291,0-15,6.709-15,15v15.76C107.384,38.591,0,149.453,0,285
			c0,8.291,6.709,15,15,15s15-6.709,15-15c0-24.814,20.186-45,45-45s46,20.186,46,45c0,8.291,6.709,15,15,15s15-6.709,15-15
			c0-7.983,2.109-15.806,6.094-22.617v-0.015C165.15,248.569,180.063,240,196,240c24.814,0,45,20.186,45,45v167
			c0,16.538-13.462,30-30,30c-16.538,0-30-13.462-30-30v-15c0-8.291-6.709-15-15-15s-15,6.709-15,15v15c0,33.091,26.909,60,60,60
			s60-26.909,60-60V285c0-24.814,20.186-45,45-45c24.814,0,45,20.186,45,45c0,8.291,6.709,15,15,15c8.291,0,15-6.709,15-15
			c0-24.814,21.186-45,46-45c24.814,0,45,20.186,45,45c0,8.291,6.709,15,15,15c8.291,0,15-6.709,15-15
			C512,149.453,404.616,38.591,271,30.76z"/>
	</g>
</g>
<g>
</g>
<g>
</g>
<g>
</g>
<g>
</g>
<g>
</g>
<g>
</g>
<g>
</g>
<g>
</g>
<g>
</g>
<g>
</g>
<g>
</g>
<g>
</g>
<g>
</g>
<g>
</g>
<g>
</g>
</svg>
